REM MD5 9e7d4cfa46ed21832a0690b5b3813fca
FILE "WCW-nWo Thunder (USA).bin" BINARY
  TRACK 01 MODE2/2352
    INDEX 01 00:00:00
  TRACK 02 AUDIO
    INDEX 00 44:33:73
    INDEX 01 44:35:73
  TRACK 03 AUDIO
    INDEX 00 47:41:38
    INDEX 01 47:43:38
  TRACK 04 AUDIO
    INDEX 00 50:40:14
    INDEX 01 50:42:14
  TRACK 05 AUDIO
    INDEX 00 54:07:29
    INDEX 01 54:09:29
  TRACK 06 AUDIO
    INDEX 00 56:12:03
    INDEX 01 56:14:03
REM LEADOUT 59:14:04
